<?xml version="1.0" encoding="iso-8859-1"?>
<!-- Generator: Adobe Illustrator 19.0.0, SVG Export Plug-In . SVG Version: 6.00 Build 0)  -->
<svg version="1.1" id="Layer_1" xmlns="http://www.w3.org/2000/svg" xmlns:xlink="http://www.w3.org/1999/xlink" x="0px" y="0px"
	 viewBox="0 0 512 512" style="enable-background:new 0 0 512 512;" xml:space="preserve">
<circle style="fill:#E9EFF4;" cx="256" cy="256" r="256"/>
<g>
	<path style="fill:#EAA22F;" d="M250.442,265.959c-0.224-0.221-0.419-0.414-0.612-0.603
		C250.092,265.614,250.308,265.826,250.442,265.959z"/>
	<path style="fill:#EAA22F;" d="M249.83,265.356c-0.153-0.152-0.317-0.314-0.49-0.483
		C249.491,265.019,249.659,265.187,249.83,265.356z"/>
	<path style="fill:#EAA22F;" d="M250.594,266.109c0,0-0.064-0.064-0.152-0.15C250.497,266.014,250.537,266.052,250.594,266.109z"/>
	<path style="fill:#EAA22F;" d="M248.092,263.64C247.441,262.997,247.61,263.165,248.092,263.64L248.092,263.64z"/>
</g>
<path style="fill:#CFDBE6;" d="M320.028,503.927c94.713-24.388,168.191-101.624,187.166-198.392L330.697,129.038l-80.103,137.069
	l-56.498,26.446l70.477,70.477l-26.009,60.128L320.028,503.927z"/>
<g>
	<path style="fill:#EAA22F;" d="M248.151,263.697c-0.019-0.019-0.038-0.038-0.057-0.057
		C248.115,263.663,248.127,263.675,248.151,263.697z"/>
	<path style="fill:#EAA22F;" d="M249.342,264.873c-0.526-0.519-0.927-0.915-1.191-1.176
		C248.479,264.021,248.92,264.457,249.342,264.873z"/>
</g>
<path style="fill:#324A5E;" d="M256,430.578c-13.376,0-24.219-10.843-24.219-24.219V265.316c0-13.376,10.843-24.219,24.219-24.219
	s24.219,10.843,24.219,24.219v141.043C280.219,419.735,269.376,430.578,256,430.578z"/>
<path style="fill:#2B3B4E;" d="M256,241.095c-0.193,0-0.381,0.024-0.574,0.029v189.424c0.193,0.005,0.381,0.029,0.574,0.029
	c13.376,0,24.219-10.843,24.219-24.219V265.316C280.219,251.938,269.376,241.095,256,241.095z"/>
<circle style="fill:#FFFFFF;" cx="256" cy="205.472" r="92.588"/>
<path style="fill:#E9EFF4;" d="M300.885,124.499c-14.427-7.997-30.063-11.709-45.459-11.598v185.175
	c32.74,0.174,64.562-17.055,81.553-47.711C361.769,205.641,345.61,149.289,300.885,124.499z"/>
<path style="fill:#31BAFD;" d="M255.819,312.292c-17.508,0-35.244-4.301-51.612-13.376c-24.96-13.834-43.039-36.561-50.902-63.991
	c-7.866-27.431-4.58-56.284,9.256-81.241c28.558-51.519,93.71-70.21,145.23-41.646c24.96,13.834,43.039,36.561,50.902,63.991
	c7.866,27.431,4.58,56.284-9.256,81.241l0,0C329.952,292.426,293.426,312.292,255.819,312.292z M256.131,127.152
	c-27.576,0-54.358,14.567-68.649,40.348c-10.145,18.301-12.555,39.46-6.787,59.573c5.768,20.115,19.025,36.78,37.326,46.925
	c37.776,20.937,85.554,7.244,106.498-30.539l0,0c10.145-18.301,12.555-39.46,6.787-59.573c-5.768-20.115-19.025-36.78-37.326-46.925
	C281.978,130.31,268.969,127.152,256.131,127.152z"/>
<path style="fill:#2B9ED8;" d="M358.693,176.03c-7.863-27.431-25.941-50.155-50.902-63.991
	c-16.601-9.204-34.616-13.474-52.367-13.348v28.484c0.236-0.002,0.469-0.022,0.705-0.022c12.84,0,25.848,3.158,37.848,9.809
	c18.301,10.145,31.558,26.81,37.326,46.925c5.768,20.113,3.358,41.272-6.787,59.573c-14.367,25.917-41.362,40.495-69.092,40.339
	v28.489c0.131,0,0.262,0.005,0.393,0.005c37.607,0,74.133-19.868,93.62-55.022C363.273,232.314,366.561,203.461,358.693,176.03z"/>
<path style="fill:#FFFFFF;" d="M302.545,256.198h-93.091v-15.777c0-11.214,7.177-21.171,17.815-24.717l17.094-5.698h23.273
	l17.094,5.698c10.64,3.546,17.815,13.503,17.815,24.717V256.198z"/>
<path style="fill:#D0D1D3;" d="M302.545,240.421c0-11.214-7.177-21.171-17.815-24.717l-17.094-5.698H256v46.192h46.545V240.421z"/>
<polygon style="fill:#FED8B2;" points="267.636,210.004 256,221.641 244.364,210.004 244.364,198.368 267.636,198.368 "/>
<polygon style="fill:#EFC095;" points="267.636,198.368 256,198.368 256,221.641 267.636,210.004 "/>
<path style="fill:#F4E3C3;" d="M232.727,175.095c0-12.853,10.419-23.273,23.273-23.273c12.853,0,23.273,10.419,23.273,23.273
	c0,12.853-10.419,34.909-23.273,34.909C243.147,210.004,232.727,187.949,232.727,175.095z"/>
<path style="fill:#FED8B2;" d="M279.273,175.095c0-12.853-10.419-23.273-23.273-23.273v58.182
	C268.853,210.004,279.273,187.949,279.273,175.095z"/>
<path style="fill:#59595B;" d="M279.273,175.095c0-12.853-10.419-23.273-23.273-23.273c-12.853,0-23.273,10.419-23.273,23.273
	c0,5.129,1.664,11.723,4.474,17.796c-0.659-3.496-0.483-7.071-0.136-9.768c14.772-1.158,29.027-8.07,29.027-8.07
	s1.805,3.317,8.571,6.266c0.479,2.753,0.953,7.23,0.129,11.583C277.607,186.827,279.273,180.229,279.273,175.095z"/>
<path style="fill:#272525;" d="M279.273,175.095c0-12.853-10.419-23.273-23.273-23.273v27.21c6.03-2.012,10.092-3.98,10.092-3.98
	s1.805,3.317,8.571,6.266c0.479,2.753,0.953,7.23,0.129,11.583C277.607,186.827,279.273,180.229,279.273,175.095z"/>
<polygon style="fill:#F4BD76;" points="251.106,255.791 254.369,225.514 257.631,225.514 260.892,255.791 "/>
<polygon style="fill:#F9B54C;" points="257.631,225.514 256,225.514 256,255.791 260.892,255.791 "/>
<path style="fill:#386895;" d="M256,255.791l-16.96-44.011l-11.771,3.924c-10.64,3.546-17.815,13.503-17.815,24.717v15.777H256
	V255.791L256,255.791z"/>
<path style="fill:#273B7A;" d="M302.545,240.421c0-11.214-7.177-21.171-17.815-24.717l-11.771-3.924L256,255.791v0.409h46.545
	V240.421z"/>
<polygon style="fill:#121149;" points="272.96,211.78 276.183,225.514 270.067,228.573 276.183,235.606 256,255.791 "/>
<polygon style="fill:#273B7A;" points="239.04,211.78 235.815,225.514 241.931,228.573 235.815,235.606 256,255.791 "/>
<polygon style="fill:#F9B54C;" points="262.422,221.693 258.141,231.784 253.859,231.784 249.577,221.693 "/>
<polygon style="fill:#F4A200;" points="262.422,221.693 256,221.693 256,231.784 258.141,231.784 "/>
<polygon style="fill:#B8C9D9;" points="266.092,225.514 272.96,211.78 267.636,210.004 256,221.641 "/>
<polygon style="fill:#CFDBE6;" points="245.908,225.514 239.04,211.78 244.364,210.004 256,221.641 "/>
<g>
</g>
<g>
</g>
<g>
</g>
<g>
</g>
<g>
</g>
<g>
</g>
<g>
</g>
<g>
</g>
<g>
</g>
<g>
</g>
<g>
</g>
<g>
</g>
<g>
</g>
<g>
</g>
<g>
</g>
</svg>
